<svg fill="none" width="100%" height="100%" viewBox="0 0 1440 390" xmlns="http://www.w3.org/2000/svg">
  <style>
    #animated {
      animation-timing-function: linear;
      animation-iteration-count: infinite;
    }

    .path-0 {
      animation: pathAnim-0 15s;
      fill: url(#gradient-0);
      fill-opacity: 1;
    }

    .path-1 {
      animation: pathAnim-1 20s;
      fill: url(#gradient-1);
      fill-opacity: 1;
    }

    .path-2 {
      animation: pathAnim-2 20s;
      fill: url(#gradient-2);
      fill-opacity: 1;
    }

    .path-3 {
      animation: pathAnim-3 25s;
      fill: url(#gradient-3);
      fill-opacity: 1;
    }

    .logo {
      fill: url(#logo-color);
    }

    @media (prefers-color-scheme: light) {
      .path-0 {
        fill: url(#gradient-0-light);
      }

      .path-1 {
        fill: url(#gradient-1-light);
      }

      .path-2 {
        fill: url(#gradient-2-light);
      }

      .path-3 {
        fill: url(#gradient-3-light);
      }

      .logo {
        fill: url(#logo-color-light);
      }
    }

    @keyframes pathAnim-0 {
      0% {
        d: path("M 0,400 L 0,60 C 61.29628063126172,61.642972322821116 122.59256126252345,63.28594464564223 170,55 C 217.40743873747655,46.71405535435777 250.92603558116792,28.499193740252196 296,36 C 341.0739644188321,43.500806259747804 397.70329641280506,76.71728039334901 442,79 C 486.29670358719494,81.28271960665099 518.2607787676121,52.63168468635175 561,51 C 603.7392212323879,49.36831531364825 657.2535885167465,74.75598086124401 708,83 C 758.7464114832535,91.24401913875599 806.7248671654021,82.34439186867219 861,78 C 915.2751328345979,73.65560813132781 975.8469428216447,73.86645166406724 1027,68 C 1078.1530571783553,62.13354833593276 1119.8873615480186,50.18980147505882 1168,44 C 1216.1126384519814,37.81019852494118 1270.6036109862805,37.37434243569748 1317,41 C 1363.3963890137195,44.62565756430252 1401.6981945068596,52.31282878215126 1440,60 L 1440,400 L 0,400 Z");
      }

      25% {
        d: path("M 0,400 L 0,60 C 62.814837822834335,74.50500938433477 125.62967564566867,89.01001876866954 168,86 C 210.37032435433133,82.98998123133046 232.29613524015969,62.464934309656606 279,52 C 325.7038647598403,41.535065690343394 397.1857833936927,41.130243992704 452,50 C 506.8142166063073,58.869756007296 544.9607311850697,77.01408971952735 581,72 C 617.0392688149303,66.98591028047265 650.9712918660288,38.813397129186605 700,43 C 749.0287081339712,47.186602870813395 813.1541013508155,83.73232176372623 862,85 C 910.8458986491845,86.26767823627377 944.4123027307094,52.25731581590843 997,43 C 1049.5876972692906,33.74268418409157 1121.1966877263474,49.23841497264004 1166,52 C 1210.8033122736526,54.76158502735996 1228.8009463639007,44.78902429353142 1270,44 C 1311.1990536360993,43.21097570646858 1375.5995268180495,51.605487853234294 1440,60 L 1440,400 L 0,400 Z");
      }

      50% {
        d: path("M 0,400 L 0,60 C 48.01024346400911,55.712693964947526 96.02048692801822,51.42538792989505 149,45 C 201.97951307198178,38.57461207010495 259.9282957519363,30.011142245367317 299,38 C 338.0717042480637,45.98885775463268 358.2663300642365,70.53004308863571 411,79 C 463.7336699357635,87.46995691136429 549.0063839911179,79.86868540008989 598,78 C 646.9936160088821,76.13131459991011 659.7081339712918,79.99521531100478 697,73 C 734.2918660287082,66.00478468899522 796.1610801237146,48.15045335589098 852,48 C 907.8389198762854,47.84954664410902 957.6475455338498,65.40297126543129 1012,69 C 1066.3524544661502,72.59702873456871 1125.2487377408863,62.23766158238388 1167,63 C 1208.7512622591137,63.76233841761612 1233.3575035026038,75.64638240503318 1276,77 C 1318.6424964973962,78.35361759496682 1379.321248248698,69.1768087974834 1440,60 L 1440,400 L 0,400 Z");
      }

      75% {
        d: path("M 0,400 L 0,60 C 37.251037563773835,62.166816463559705 74.50207512754767,64.33363292711941 121,67 C 167.49792487245233,69.66636707288059 223.2427370535832,72.83228475508207 281,61 C 338.7572629464168,49.16771524491792 398.52697665811945,22.337228052552277 442,31 C 485.47302334188055,39.66277194744772 512.649356313939,83.81880303470882 554,86 C 595.350643686061,88.18119696529118 650.8755980861246,48.38755980861244 702,35 C 753.1244019138754,21.61244019138756 799.8482513415631,34.630957730841416 854,36 C 908.1517486584369,37.369042269158584 969.7313965476221,27.08860926802189 1020,30 C 1070.2686034523779,32.91139073197811 1109.226162467948,49.01460519707103 1151,54 C 1192.773837532052,58.98539480292897 1237.3639535805862,52.85296994369399 1286,52 C 1334.6360464194138,51.14703005630601 1387.318023209707,55.573515028153004 1440,60 L 1440,400 L 0,400 Z");
      }

      100% {
        d: path("M 0,400 L 0,60 C 61.29628063126172,61.642972322821116 122.59256126252345,63.28594464564223 170,55 C 217.40743873747655,46.71405535435777 250.92603558116792,28.499193740252196 296,36 C 341.0739644188321,43.500806259747804 397.70329641280506,76.71728039334901 442,79 C 486.29670358719494,81.28271960665099 518.2607787676121,52.63168468635175 561,51 C 603.7392212323879,49.36831531364825 657.2535885167465,74.75598086124401 708,83 C 758.7464114832535,91.24401913875599 806.7248671654021,82.34439186867219 861,78 C 915.2751328345979,73.65560813132781 975.8469428216447,73.86645166406724 1027,68 C 1078.1530571783553,62.13354833593276 1119.8873615480186,50.18980147505882 1168,44 C 1216.1126384519814,37.81019852494118 1270.6036109862805,37.37434243569748 1317,41 C 1363.3963890137195,44.62565756430252 1401.6981945068596,52.31282878215126 1440,60 L 1440,400 L 0,400 Z");
      }
    }

    @keyframes pathAnim-1 {
      0% {
        d: path("M 0,400 L 0,140 C 36.557997832350836,151.04645906579606 73.11599566470167,162.09291813159214 126,161 C 178.88400433529833,159.90708186840786 248.0940151735441,146.67478653942743 308,147 C 367.9059848264559,147.32521346057257 418.5079436411219,161.20793571069814 458,166 C 497.4920563588781,170.79206428930186 525.8742102619683,166.49347061778002 573,165 C 620.1257897380317,163.50652938221998 685.9952153110049,164.81818181818178 737,163 C 788.0047846889951,161.18181818181822 824.1449284940123,156.23380210949273 858,150 C 891.8550715059877,143.76619789050727 923.4250707129454,136.2466097438473 981,136 C 1038.5749292870546,135.7533902561527 1122.1547886542069,142.77975891511804 1174,143 C 1225.8452113457931,143.22024108488196 1245.9557746702267,136.63435459568055 1285,135 C 1324.0442253297733,133.36564540431945 1382.0221126648867,136.68282270215974 1440,140 L 1440,400 L 0,400 Z");
      }

      25% {
        d: path("M 0,400 L 0,140 C 35.554178011578415,125.83392370932353 71.10835602315683,111.66784741864707 119,119 C 166.89164397684317,126.33215258135293 227.1207539189511,155.16253403473527 274,166 C 320.8792460810489,176.83746596526473 354.4086283010388,169.6820164424119 406,165 C 457.5913716989612,160.3179835575881 527.2447328768934,158.10940019561713 581,147 C 634.7552671231066,135.89059980438287 672.6124401913875,115.88038277511961 715,122 C 757.3875598086125,128.1196172248804 804.3055063575564,160.36906870390442 858,158 C 911.6944936424436,155.63093129609558 972.1655343783871,118.64334240926276 1020,121 C 1067.834465621613,123.35665759073724 1103.0323561288956,165.05756165904464 1143,166 C 1182.9676438711044,166.94243834095536 1227.7050411060297,127.12641095455868 1278,116 C 1328.2949588939703,104.87358904544132 1384.147479446985,122.43679452272066 1440,140 L 1440,400 L 0,400 Z");
      }

      50% {
        d: path("M 0,400 L 0,140 C 55.828253456343006,137.46452457109626 111.65650691268601,134.9290491421925 156,138 C 200.343493087314,141.0709508578075 233.2022258055989,149.74832800232628 279,142 C 324.7977741944011,134.25167199767372 383.5345898649184,110.07763884850247 429,118 C 474.4654101350816,125.92236115149753 506.6594147347273,165.94111660366386 549,164 C 591.3405852652727,162.05888339633614 643.8277511961722,118.15789473684211 700,112 C 756.1722488038278,105.84210526315789 816.0295804805838,137.42730444896773 867,145 C 917.9704195194162,152.57269555103227 960.053926881493,136.13288746728702 1002,128 C 1043.946073118507,119.86711253271298 1085.7547119934443,120.04114568188427 1135,120 C 1184.2452880065557,119.95885431811573 1240.92722514473,119.70252980517591 1293,123 C 1345.07277485527,126.29747019482409 1392.536387427635,133.14873509741204 1440,140 L 1440,400 L 0,400 Z");
      }

      75% {
        d: path("M 0,400 L 0,140 C 44.62088609268021,140.9060773480663 89.24177218536042,141.8121546961326 143,149 C 196.75822781463958,156.1878453038674 259.6537973512385,169.6574585635359 314,162 C 368.3462026487615,154.3425414364641 414.1430384096857,125.55801104972375 452,127 C 489.8569615903143,128.44198895027625 519.7740490100188,160.11049723756906 568,169 C 616.2259509899812,177.88950276243094 682.7607655502392,163.99999999999997 735,156 C 787.2392344497608,148.00000000000003 825.1828887890243,145.88950276243096 871,145 C 916.8171112109757,144.11049723756904 970.5076792936636,144.44198895027623 1020,137 C 1069.4923207063364,129.55801104972377 1114.786394036321,114.3425414364641 1154,112 C 1193.213605963679,109.6574585635359 1226.346744561051,120.18784530386739 1273,127 C 1319.653255438949,133.8121546961326 1379.8266277194743,136.9060773480663 1440,140 L 1440,400 L 0,400 Z");
      }

      100% {
        d: path("M 0,400 L 0,140 C 36.557997832350836,151.04645906579606 73.11599566470167,162.09291813159214 126,161 C 178.88400433529833,159.90708186840786 248.0940151735441,146.67478653942743 308,147 C 367.9059848264559,147.32521346057257 418.5079436411219,161.20793571069814 458,166 C 497.4920563588781,170.79206428930186 525.8742102619683,166.49347061778002 573,165 C 620.1257897380317,163.50652938221998 685.9952153110049,164.81818181818178 737,163 C 788.0047846889951,161.18181818181822 824.1449284940123,156.23380210949273 858,150 C 891.8550715059877,143.76619789050727 923.4250707129454,136.2466097438473 981,136 C 1038.5749292870546,135.7533902561527 1122.1547886542069,142.77975891511804 1174,143 C 1225.8452113457931,143.22024108488196 1245.9557746702267,136.63435459568055 1285,135 C 1324.0442253297733,133.36564540431945 1382.0221126648867,136.68282270215974 1440,140 L 1440,400 L 0,400 Z");
      }
    }

    @keyframes pathAnim-2 {
      0% {
        d: path("M 0,400 L 0,220 C 39.65227735335324,204.80990774273707 79.30455470670648,189.61981548547413 125,197 C 170.69544529329352,204.38018451452587 222.43405852652734,234.3306458008406 276,243 C 329.56594147347266,251.6693541991594 384.9592111871844,239.0576013111634 437,239 C 489.0407888128156,238.9423986888366 537.7290967247351,251.43894895450578 588,249 C 638.2709032752649,246.56105104549422 690.1244019138755,229.1866028708134 729,224 C 767.8755980861245,218.8133971291866 793.7732956197627,225.8146395622406 844,227 C 894.2267043802373,228.1853604377594 968.782415607074,223.55483888022417 1023,215 C 1077.217584392926,206.44516111977583 1111.0970419519415,193.9660049168627 1156,202 C 1200.9029580480585,210.0339950831373 1256.8294165851594,238.58114145232497 1306,245 C 1355.1705834148406,251.41885854767503 1397.5852917074203,235.70942927383751 1440,220 L 1440,400 L 0,400 Z");
      }

      25% {
        d: path("M 0,400 L 0,220 C 54.31063469824737,228.9282693171905 108.62126939649474,237.85653863438102 159,240 C 209.37873060350526,242.14346136561898 255.82555711226837,237.5021147796664 307,239 C 358.17444288773163,240.4978852203336 414.0765021544318,248.1350022469534 454,246 C 493.9234978455682,243.8649977530466 517.8684342700045,231.95787623252005 568,220 C 618.1315657299955,208.04212376747995 694.4497607655502,196.03349282296648 740,205 C 785.5502392344498,213.96650717703352 800.3325226677946,243.90815247561395 840,245 C 879.6674773322054,246.09184752438605 944.2201485632713,218.33389727457774 1005,203 C 1065.7798514367287,187.66610272542226 1122.7868830791192,184.75625842607525 1168,196 C 1213.2131169208808,207.24374157392475 1246.6323191202519,232.64106902112135 1290,239 C 1333.3676808797481,245.35893097887865 1386.683840439874,232.67946548943934 1440,220 L 1440,400 L 0,400 Z");
      }

      50% {
        d: path("M 0,400 L 0,220 C 51.87448782679954,217.77057284094212 103.74897565359908,215.54114568188427 152,215 C 200.25102434640092,214.45885431811573 244.8785852124032,215.60599011340503 286,225 C 327.1214147875968,234.39400988659497 364.7366834967882,252.03489386449553 409,249 C 453.2633165032118,245.96510613550447 504.1746808004441,222.25443442861294 559,208 C 613.8253191995559,193.74556557138706 672.5645933014354,188.94736842105266 729,192 C 785.4354066985646,195.05263157894734 839.5669459938144,205.95609188717648 882,210 C 924.4330540061856,214.04390811282352 955.1676227233074,211.22826403024135 1005,213 C 1054.8323772766926,214.77173596975865 1123.7625631129558,221.1308519918581 1175,217 C 1226.2374368870442,212.8691480081419 1259.7821248248697,198.24832800232625 1301,197 C 1342.2178751751303,195.75167199767375 1391.1089375875652,207.87583599883686 1440,220 L 1440,400 L 0,400 Z");
      }

      75% {
        d: path("M 0,400 L 0,220 C 62.055327923022006,228.73196489465752 124.11065584604401,237.46392978931505 170,241 C 215.889344153956,244.53607021068495 245.6127045388459,242.87624573739726 279,243 C 312.3872954611541,243.12375426260274 349.4385259985725,245.031087261096 405,238 C 460.5614740014275,230.968912738904 534.6331914668641,214.99940521821884 591,209 C 647.3668085331359,203.00059478178116 686.0287081339711,206.9712918660287 733,215 C 779.9712918660289,223.0287081339713 835.2519759972508,235.11542731766633 877,237 C 918.7480240027492,238.88457268233367 946.9633878770256,230.56699886330594 985,218 C 1023.0366121229744,205.43300113669406 1070.894472494647,188.61657722910994 1126,194 C 1181.105527505353,199.38342277089006 1243.4587221443867,226.9666922202543 1297,235 C 1350.5412778556133,243.0333077797457 1395.2706389278067,231.51665388987286 1440,220 L 1440,400 L 0,400 Z");
      }

      100% {
        d: path("M 0,400 L 0,220 C 39.65227735335324,204.80990774273707 79.30455470670648,189.61981548547413 125,197 C 170.69544529329352,204.38018451452587 222.43405852652734,234.3306458008406 276,243 C 329.56594147347266,251.6693541991594 384.9592111871844,239.0576013111634 437,239 C 489.0407888128156,238.9423986888366 537.7290967247351,251.43894895450578 588,249 C 638.2709032752649,246.56105104549422 690.1244019138755,229.1866028708134 729,224 C 767.8755980861245,218.8133971291866 793.7732956197627,225.8146395622406 844,227 C 894.2267043802373,228.1853604377594 968.782415607074,223.55483888022417 1023,215 C 1077.217584392926,206.44516111977583 1111.0970419519415,193.9660049168627 1156,202 C 1200.9029580480585,210.0339950831373 1256.8294165851594,238.58114145232497 1306,245 C 1355.1705834148406,251.41885854767503 1397.5852917074203,235.70942927383751 1440,220 L 1440,400 L 0,400 Z");
      }
    }

    @keyframes pathAnim-3 {
      0% {
        d: path("M 0,400 L 0,300 C 47.52773004837559,287.791575246504 95.05546009675118,275.583150493008 143,272 C 190.94453990324882,268.416849506992 239.30588966137088,273.45897327447193 287,280 C 334.6941103386291,286.54102672552807 381.72098125776523,294.58095640910415 435,299 C 488.27901874223477,303.41904359089585 547.8101853075683,304.21720108911154 599,303 C 650.1898146924317,301.78279891088846 693.0382775119617,298.55023923444975 738,302 C 782.9617224880383,305.44976076555025 830.0367046445848,315.58184197308947 876,324 C 921.9632953554152,332.41815802691053 966.8149039096991,339.1223928731925 1005,324 C 1043.185096090301,308.8776071268075 1074.7036797166195,271.92858653414044 1125,274 C 1175.2963202833805,276.07141346585956 1244.370377223823,317.1632609902456 1300,328 C 1355.629622776177,338.8367390097544 1397.8148113880884,319.4183695048772 1440,300 L 1440,400 L 0,400 Z");
      }

      25% {
        d: path("M 0,400 L 0,300 C 63.421250892172665,312.2400010573898 126.84250178434533,324.48000211477967 169,314 C 211.15749821565467,303.51999788522033 232.0512437547913,270.31999259827114 274,270 C 315.9487562452087,269.68000740172886 378.95252319648944,302.24002749213565 427,313 C 475.04747680351056,323.75997250786435 508.1386634592509,312.7198974331862 555,301 C 601.8613365407491,289.2801025668138 662.4928229665071,276.88038277511964 712,271 C 761.5071770334929,265.11961722488036 799.8900446747206,265.75857146633535 842,278 C 884.1099553252794,290.24142853366465 929.946998334611,314.085331359539 987,319 C 1044.053001665389,323.914668640461 1112.3219619868353,309.9001030955087 1169,304 C 1225.6780380131647,298.0998969044913 1270.7651537180473,300.3142562584261 1314,301 C 1357.2348462819527,301.6857437415739 1398.6174231409764,300.84287187078695 1440,300 L 1440,400 L 0,400 Z");
      }

      50% {
        d: path("M 0,400 L 0,300 C 51.34788125512172,301.52461074836765 102.69576251024344,303.0492214967353 146,310 C 189.30423748975656,316.9507785032647 224.5648312141479,329.3277247614264 269,326 C 313.4351687858521,322.6722752385736 367.04491263316504,303.639879457559 426,299 C 484.95508736683496,294.360120542441 549.2555182531919,304.11275740833753 602,311 C 654.7444817468081,317.88724259166247 695.933014354067,321.90909090909093 737,310 C 778.066985645933,298.09090909090907 819.01242433054,270.25087895529884 858,276 C 896.98757566946,281.74912104470116 934.0172883237728,321.0873932697137 982,323 C 1029.9827116762272,324.9126067302863 1088.918422374369,289.3995479658463 1149,287 C 1209.081577625631,284.6004520341537 1270.3090221787518,315.314414866901 1319,323 C 1367.6909778212482,330.685585133099 1403.8454889106242,315.3427925665495 1440,300 L 1440,400 L 0,400 Z");
      }

      75% {
        d: path("M 0,400 L 0,300 C 46.44572946681117,314.2186417827593 92.89145893362235,328.43728356551856 144,326 C 195.10854106637765,323.56271643448144 250.87989373232176,304.46950752068517 302,301 C 353.12010626767824,297.53049247931483 399.58896613709067,309.6846863517407 444,304 C 488.41103386290933,298.3153136482593 530.7642417193158,274.79174707235194 583,273 C 635.2357582806842,271.20825292764806 697.3540669856459,291.1483253588517 744,298 C 790.6459330143541,304.8516746411483 821.8194903381003,298.6149514922414 857,299 C 892.1805096618997,299.3850485077586 931.3679716619524,306.39186867218274 986,307 C 1040.6320283380476,307.60813132781726 1110.7086230140897,301.81757381902776 1157,306 C 1203.2913769859103,310.18242618097224 1225.7975362816885,324.33783605170635 1269,325 C 1312.2024637183115,325.66216394829365 1376.1012318591556,312.83108197414685 1440,300 L 1440,400 L 0,400 Z");
      }

      100% {
        d: path("M 0,400 L 0,300 C 47.52773004837559,287.791575246504 95.05546009675118,275.583150493008 143,272 C 190.94453990324882,268.416849506992 239.30588966137088,273.45897327447193 287,280 C 334.6941103386291,286.54102672552807 381.72098125776523,294.58095640910415 435,299 C 488.27901874223477,303.41904359089585 547.8101853075683,304.21720108911154 599,303 C 650.1898146924317,301.78279891088846 693.0382775119617,298.55023923444975 738,302 C 782.9617224880383,305.44976076555025 830.0367046445848,315.58184197308947 876,324 C 921.9632953554152,332.41815802691053 966.8149039096991,339.1223928731925 1005,324 C 1043.185096090301,308.8776071268075 1074.7036797166195,271.92858653414044 1125,274 C 1175.2963202833805,276.07141346585956 1244.370377223823,317.1632609902456 1300,328 C 1355.629622776177,338.8367390097544 1397.8148113880884,319.4183695048772 1440,300 L 1440,400 L 0,400 Z");
      }
    }
  </style>
  <defs>
    <linearGradient id="gradient-0" x1="50%" y1="100%" x2="50%" y2="0%">
      <stop stop-color="#000000"></stop>
      <stop offset="1" stop-color="#0e4429"></stop>
    </linearGradient>
    <linearGradient id="gradient-0-light" x1="50%" y1="100%" x2="50%" y2="0%">
      <stop stop-color="#ffe7bb"></stop>
      <stop offset="1" stop-color="#feecbb"></stop>
    </linearGradient>
    <linearGradient id="gradient-1" x1="50%" y1="100%" x2="50%" y2="0%">
      <stop stop-color="#00381a"></stop>
      <stop offset="1" stop-color="#006d32"></stop>
    </linearGradient>
    <linearGradient id="gradient-1-light" x1="50%" y1="100%" x2="50%" y2="0%">
      <stop stop-color="#fdc370"></stop>
      <stop offset="1" stop-color="#fdd470"></stop>
    </linearGradient>
    <linearGradient id="gradient-2" x1="50%" y1="100%" x2="50%" y2="0%">
      <stop stop-color="#006d32"></stop>
      <stop offset="1" stop-color="#26a641"></stop>
    </linearGradient>
    <linearGradient id="gradient-2-light" x1="50%" y1="100%" x2="50%" y2="0%">
      <stop stop-color="#fea235"></stop>f5735c
      <stop offset="1" stop-color="#fcbf35"></stop>
    </linearGradient>
    <linearGradient id="gradient-3" x1="50%" y1="100%" x2="50%" y2="0%">
      <stop stop-color="#0e4429"></stop>
      <stop offset="1" stop-color="#39d353"></stop>
    </linearGradient>
    <linearGradient id="gradient-3-light" x1="50%" y1="100%" x2="50%" y2="0%">
      <stop stop-color="#ef4343"></stop>
      <stop offset="1" stop-color="#fcb600"></stop>
    </linearGradient>
    <linearGradient id="logo-color" x1="24.0122" y1="0" x2="24.0122" y2="48.0163" gradientUnits="userSpaceOnUse">
      <stop stop-color="#61FD7D" />
      <stop offset="1" stop-color="#37AEE2" />
    </linearGradient>
    <linearGradient id="logo-color-light" x1="24.0122" y1="0" x2="24.0122" y2="48.0163" gradientUnits="userSpaceOnUse">
      <stop stop-color="#eeb9b9" />
      <stop offset="1" stop-color="#fd771d" />
    </linearGradient>
  </defs>

  <path
    d="M 0,400 L 0,60 C 61.29628063126172,61.642972322821116 122.59256126252345,63.28594464564223 170,55 C 217.40743873747655,46.71405535435777 250.92603558116792,28.499193740252196 296,36 C 341.0739644188321,43.500806259747804 397.70329641280506,76.71728039334901 442,79 C 486.29670358719494,81.28271960665099 518.2607787676121,52.63168468635175 561,51 C 603.7392212323879,49.36831531364825 657.2535885167465,74.75598086124401 708,83 C 758.7464114832535,91.24401913875599 806.7248671654021,82.34439186867219 861,78 C 915.2751328345979,73.65560813132781 975.8469428216447,73.86645166406724 1027,68 C 1078.1530571783553,62.13354833593276 1119.8873615480186,50.18980147505882 1168,44 C 1216.1126384519814,37.81019852494118 1270.6036109862805,37.37434243569748 1317,41 C 1363.3963890137195,44.62565756430252 1401.6981945068596,52.31282878215126 1440,60 L 1440,400 L 0,400 Z"
    stroke="none" stroke-width="0" class="path-0" id="animated" />

  <path
    d="M 0,400 L 0,140 C 36.557997832350836,151.04645906579606 73.11599566470167,162.09291813159214 126,161 C 178.88400433529833,159.90708186840786 248.0940151735441,146.67478653942743 308,147 C 367.9059848264559,147.32521346057257 418.5079436411219,161.20793571069814 458,166 C 497.4920563588781,170.79206428930186 525.8742102619683,166.49347061778002 573,165 C 620.1257897380317,163.50652938221998 685.9952153110049,164.81818181818178 737,163 C 788.0047846889951,161.18181818181822 824.1449284940123,156.23380210949273 858,150 C 891.8550715059877,143.76619789050727 923.4250707129454,136.2466097438473 981,136 C 1038.5749292870546,135.7533902561527 1122.1547886542069,142.77975891511804 1174,143 C 1225.8452113457931,143.22024108488196 1245.9557746702267,136.63435459568055 1285,135 C 1324.0442253297733,133.36564540431945 1382.0221126648867,136.68282270215974 1440,140 L 1440,400 L 0,400 Z"
    stroke="none" stroke-width="0" class="path-1" id="animated" />

  <path
    d="M 0,400 L 0,220 C 39.65227735335324,204.80990774273707 79.30455470670648,189.61981548547413 125,197 C 170.69544529329352,204.38018451452587 222.43405852652734,234.3306458008406 276,243 C 329.56594147347266,251.6693541991594 384.9592111871844,239.0576013111634 437,239 C 489.0407888128156,238.9423986888366 537.7290967247351,251.43894895450578 588,249 C 638.2709032752649,246.56105104549422 690.1244019138755,229.1866028708134 729,224 C 767.8755980861245,218.8133971291866 793.7732956197627,225.8146395622406 844,227 C 894.2267043802373,228.1853604377594 968.782415607074,223.55483888022417 1023,215 C 1077.217584392926,206.44516111977583 1111.0970419519415,193.9660049168627 1156,202 C 1200.9029580480585,210.0339950831373 1256.8294165851594,238.58114145232497 1306,245 C 1355.1705834148406,251.41885854767503 1397.5852917074203,235.70942927383751 1440,220 L 1440,400 L 0,400 Z"
    stroke="none" stroke-width="0" class="path-2" id="animated" />

  <g transform="translate(720, 185) scale(7.2) translate(-24, -24)">
    <path fill-rule="evenodd" clip-rule="evenodd"
      d="M6.98594 7.07985C11.3353 2.70702 17.3581 0 24.0122 0C33.4477 0 41.614 5.44315 45.5393 13.3607L39.0199 10.626V12.8836L43.5212 14.714L39.0199 16.4224V18.6952L46.4951 15.5596C47.3375 17.7992 47.8548 20.198 47.9892 22.6984H21.0108V25.0996H48C47.9308 26.6462 47.7152 28.1547 47.3667 29.6116H40.0204V31.9149H42.9501V38.7694C38.5552 44.3976 31.7056 48.0163 24.0122 48.0163C17.3347 48.0163 11.293 45.2903 6.94016 40.8903C7.56708 40.9727 8.20986 41.0139 8.8685 41.0139C10.3092 41.0139 11.6859 40.78 12.9986 40.3122C14.3433 39.8755 15.5439 39.2518 16.6004 38.4409C17.657 37.5988 18.4894 36.5695 19.0977 35.3531C19.706 34.1368 20.0102 32.7645 20.0102 31.2362C20.0102 29.8015 19.754 28.554 19.2418 27.4935C18.7615 26.4331 18.1052 25.513 17.2728 24.7333C16.4403 23.9224 15.5119 23.2518 14.4874 22.7216C13.4949 22.1914 12.5023 21.7548 11.5098 21.4117C9.71693 20.7879 8.26019 20.1797 7.13962 19.5871C6.01906 18.9945 5.18663 18.3708 4.64236 17.7158C4.1301 17.0296 3.87397 16.2655 3.87397 15.4234C3.87397 14.4877 4.24215 13.6768 4.97853 12.9907C5.7149 12.2733 6.86749 11.9146 8.43628 11.9146C9.55685 11.9146 10.5333 12.133 11.3658 12.5696C12.2302 12.9751 12.9826 13.5365 13.6229 14.2538C14.2632 14.94 14.7915 15.6885 15.2077 16.4994L19.8181 13.9731C19.2418 12.8191 18.4414 11.7119 17.4168 10.6515C16.4243 9.59106 15.1917 8.71777 13.719 8.03161C12.2462 7.34546 10.5173 7.00238 8.53233 7.00238C8.00251 7.00238 7.48704 7.0282 6.98594 7.07985ZM0.134344 21.4537C0.0455389 22.293 0 23.1453 0 24.0082C0 26.4895 0.376585 28.883 1.07571 31.1345C1.55756 31.8468 2.05809 32.5045 2.57731 33.1075C3.44175 34.0432 4.38623 34.7761 5.41075 35.3064C6.43527 35.8054 7.58785 36.0549 8.8685 36.0549C10.4053 36.0549 11.6539 35.6494 12.6144 34.8385C13.5749 34.0276 14.0551 32.9828 14.0551 31.704C14.0551 30.4877 13.751 29.5208 13.1427 28.8035C12.5344 28.0549 11.6859 27.4311 10.5974 26.9321C9.54084 26.4019 8.30822 25.8873 6.8995 25.3883C6.06708 25.1076 5.13861 24.7333 4.11409 24.2655C3.08957 23.7664 2.11307 23.1583 1.1846 22.4409C0.808208 22.1375 0.458122 21.8084 0.134344 21.4537ZM45.5288 31.9149H46.6915C46.3605 32.8641 45.9715 33.7861 45.5288 34.6768V31.9149ZM35.4888 31.8234V33.9284H39.3492V36.0029H35.4888V40.5138H33.0168V29.6116H34.7258H35.4888H39.5018V31.8234H35.4888ZM23.7421 34.9505C23.7421 35.5809 23.8641 36.1402 24.1083 36.6284C24.3626 37.1063 24.7136 37.4826 25.1611 37.7571C25.6189 38.0317 26.153 38.169 26.7633 38.169C27.3635 38.169 27.8874 38.0317 28.335 37.7571C28.7927 37.4826 29.1437 37.1063 29.3878 36.6284C29.6421 36.1402 29.7693 35.5809 29.7693 34.9505C29.7693 34.32 29.6472 33.7658 29.4031 33.2878C29.1589 32.7997 28.8131 32.4184 28.3655 32.1438C27.9179 31.8692 27.3838 31.7319 26.7633 31.7319C26.153 31.7319 25.6189 31.8692 25.1611 32.1438C24.7136 32.4184 24.3626 32.7997 24.1083 33.2878C23.8641 33.7658 23.7421 34.32 23.7421 34.9505ZM21.0108 34.9505C21.0108 34.1268 21.1532 33.3743 21.438 32.6929C21.733 32.0116 22.1399 31.4218 22.6587 30.9235C23.1775 30.4252 23.7878 30.0439 24.4898 29.7795C25.1917 29.5049 25.9495 29.3676 26.7633 29.3676C27.5873 29.3676 28.3451 29.5049 29.0369 29.7795C29.7388 30.0439 30.3491 30.4252 30.8679 30.9235C31.3867 31.4218 31.7885 32.0116 32.0734 32.6929C32.3582 33.3743 32.5006 34.1268 32.5006 34.9505C32.5006 35.7742 32.3582 36.5318 32.0734 37.2233C31.7987 37.9148 31.402 38.5147 30.8832 39.0232C30.3746 39.5316 29.7693 39.9282 29.0674 40.213C28.3655 40.4875 27.5975 40.6248 26.7633 40.6248C25.919 40.6248 25.1459 40.4875 24.444 40.213C23.7421 39.9282 23.1317 39.5316 22.6129 39.0232C22.1043 38.5147 21.7076 37.9148 21.4227 37.2233C21.1481 36.5318 21.0108 35.7742 21.0108 34.9505ZM32.5941 14.9736H33.3838L35.6763 18.6803H38.6976L35.9141 14.6526C36.0111 14.6154 36.1048 14.5749 36.1951 14.5313C36.8055 14.2364 37.2683 13.8296 37.5837 13.311C37.899 12.7822 38.0567 12.1771 38.0567 11.4958C38.0567 10.8043 37.899 10.1993 37.5837 9.68063C37.2683 9.15183 36.8055 8.73998 36.1951 8.44508C35.5848 8.15018 34.8218 8.00272 33.9063 8.00272H32.5941H31.6328H30.0153V18.6803H32.5941V14.9736ZM33.7232 10.184H32.5941V12.9754H33.7232C34.0691 12.9754 34.3641 12.9246 34.6082 12.8229C34.8625 12.711 35.0558 12.5534 35.188 12.35C35.3203 12.1365 35.3864 11.8822 35.3864 11.5873C35.3864 11.2924 35.3203 11.0433 35.188 10.8399C35.0558 10.6264 34.8625 10.4636 34.6082 10.3518C34.3641 10.2399 34.0691 10.184 33.7232 10.184ZM21.0107 8.00278V10.3061H23.9404V18.6803H26.5191V10.3061H29.4641V8.00278H21.0107Z"
      class="logo" />
  </g>

  <path
    d="M 0,400 L 0,300 C 47.52773004837559,287.791575246504 95.05546009675118,275.583150493008 143,272 C 190.94453990324882,268.416849506992 239.30588966137088,273.45897327447193 287,280 C 334.6941103386291,286.54102672552807 381.72098125776523,294.58095640910415 435,299 C 488.27901874223477,303.41904359089585 547.8101853075683,304.21720108911154 599,303 C 650.1898146924317,301.78279891088846 693.0382775119617,298.55023923444975 738,302 C 782.9617224880383,305.44976076555025 830.0367046445848,315.58184197308947 876,324 C 921.9632953554152,332.41815802691053 966.8149039096991,339.1223928731925 1005,324 C 1043.185096090301,308.8776071268075 1074.7036797166195,271.92858653414044 1125,274 C 1175.2963202833805,276.07141346585956 1244.370377223823,317.1632609902456 1300,328 C 1355.629622776177,338.8367390097544 1397.8148113880884,319.4183695048772 1440,300 L 1440,400 L 0,400 Z"
    stroke="none" stroke-width="0" class="path-3" id="animated" />

</svg>